<?xml version="1.0" encoding="utf-8"?>
<!-- Generator: Adobe Illustrator 27.7.0, SVG Export Plug-In . SVG Version: 6.00 Build 0)  -->
<svg version="1.1" id="레이어_1" xmlns="http://www.w3.org/2000/svg" xmlns:xlink="http://www.w3.org/1999/xlink" x="0px"
	 y="0px" viewBox="0 0 415.6 312.7" style="enable-background:new 0 0 415.6 312.7;" xml:space="preserve">
<style type="text/css">
	.st0{fill:#BEC0C2;}
	.st1{fill:#FFFFFF;}
	.st2{fill:#A1A1A4;}
	.st3{fill:#0066B3;}
</style>
<path class="st0" d="M214.6,310.3c-64.3,0.8-120-38-143.7-93.8c1-0.4,2-1,3-1.6c23.1,54.8,77.6,92.9,140.7,92
	c68.3-0.9,125.3-47.1,142.9-109.7c1.1,0.4,2.2,0.7,3.3,0.8C342.7,262,284.3,309.4,214.6,310.3 M58.6,158.4
	C57.5,73.6,125.7,3.6,210.5,2.4c83.3-1,152.2,64.6,155.8,147.2c-1.1-0.3-2.3-0.4-3.4-0.4C359.1,68.5,292,4.8,210.6,5.9
	C127.4,7,61,75.3,62,158.4c0,3.5,0.2,7,0.5,10.5c-1.1,0.2-2.3,0.5-3.3,1C58.9,166,58.7,162.2,58.6,158.4 M381.7,173.7
	c0-10.8-5.4-19.9-12.9-23.2C365.7,66.1,295.5-1,210.5,0C124.3,1.2,55.1,72.3,56.2,158.4c0.1,4.2,0.3,8.4,0.7,12.6
	c-6.4,4-10.7,12.3-10.7,22c0,13.5,8.5,24.5,19,24.5c1.2,0,2.3-0.2,3.4-0.4c24.1,56.8,80.7,96.4,146.1,95.6
	c71-1,130.5-49.4,148.6-114.6C373.5,197.8,381.7,187,381.7,173.7"/>
<path class="st1" d="M111.7,127.1c16.2-55.5,74.4-87.4,129.9-71.1c55.5,16.2,87.4,74.4,71.2,129.9c-16.2,55.5-74.4,87.4-129.9,71.2
	C127.3,240.7,95.4,182.6,111.7,127.1"/>
<path class="st0" d="M268.3,85.6l3.1-10.6l2.9-1.2l-10.6-5.6c-1-0.5-1.7-0.2-2,0.3l-0.3,0.7c-0.3,0.5,0,1.4,0.9,1.8l8.2,4.3
	l-2.8,1.2l-2.3,8.1c-0.3,0.9,0.1,1.7,0.7,1.9l0.7,0.2C267.2,87,268,86.6,268.3,85.6"/>
<path class="st0" d="M257.4,89.3l3.8-10.3l2.9-1L254,71.6c-0.9-0.6-1.7-0.3-2,0.2l-0.4,0.6c-0.3,0.5-0.1,1.4,0.8,1.9l7.9,4.9l-2.9,1
	l-2.9,7.9c-0.3,0.9,0,1.8,0.5,2l0.7,0.3C256.3,90.6,257.1,90.3,257.4,89.3"/>
<path class="st0" d="M246.4,92.2l4.5-10l3-0.8l-9.8-7c-0.9-0.6-1.7-0.4-2,0l-0.4,0.6c-0.3,0.5-0.1,1.4,0.6,2l7.6,5.5l-2.9,0.8
	l-3.4,7.7c-0.4,0.9-0.1,1.8,0.4,2l0.7,0.3C245.1,93.5,245.9,93.3,246.4,92.2"/>
<path class="st0" d="M235.1,94.4l5.2-9.7l3.1-0.6l-9.2-7.7c-0.8-0.7-1.6-0.6-2-0.1l-0.5,0.6c-0.4,0.5-0.2,1.4,0.5,2l7.2,6l-3,0.6
	l-3.9,7.4c-0.5,0.9-0.3,1.7,0.3,2l0.6,0.4C233.8,95.5,234.6,95.4,235.1,94.4"/>
<path class="st0" d="M223.7,95.7l5.8-9.3l3.1-0.4l-8.7-8.4c-0.8-0.8-1.6-0.7-2-0.3l-0.5,0.5c-0.4,0.5-0.3,1.4,0.4,2l6.8,6.5l-3,0.4
	l-4.4,7.1c-0.5,0.8-0.4,1.7,0.1,2.1l0.6,0.4C222.3,96.7,223.1,96.6,223.7,95.7"/>
<path class="st0" d="M212.3,96.2l6.4-8.8l3.1-0.1l-8.1-9c-0.7-0.8-1.6-0.8-2-0.4l-0.5,0.5c-0.4,0.4-0.4,1.3,0.2,2l6.3,7l-3,0.2
	l-4.9,6.8c-0.6,0.8-0.5,1.7,0,2.1l0.6,0.4C210.8,97.1,211.6,97.1,212.3,96.2"/>
<path class="st0" d="M200.8,95.8l7-8.4l3.1,0.1l-7.5-9.5c-0.7-0.9-1.5-0.9-1.9-0.5l-0.6,0.5c-0.5,0.4-0.5,1.3,0.1,2.1l5.8,7.4
	l-3.1-0.1l-5.3,6.4c-0.6,0.7-0.6,1.6-0.2,2.1l0.6,0.5C199.3,96.7,200.1,96.7,200.8,95.8"/>
<path class="st0" d="M189.4,94.6l7.6-7.8l3.1,0.3L193.3,77c-0.6-0.9-1.4-1-1.9-0.7l-0.6,0.4c-0.5,0.3-0.6,1.3,0,2.1l5.3,7.8l-3-0.3
	l-5.8,6c-0.7,0.7-0.7,1.6-0.3,2.1l0.5,0.5C187.8,95.4,188.7,95.4,189.4,94.6"/>
<path class="st0" d="M178.1,92.6l8.1-7.3l3.1,0.5l-6.1-10.5c-0.5-1-1.4-1.1-1.8-0.8l-0.6,0.4c-0.5,0.3-0.7,1.2-0.2,2.1l4.7,8.2
	l-3-0.5l-6.2,5.6c-0.7,0.6-0.8,1.5-0.4,2l0.5,0.6C176.5,93.3,177.3,93.4,178.1,92.6"/>
<path class="st0" d="M167,89.8l8.6-6.7l3,0.7L173.2,73c-0.5-1-1.3-1.2-1.8-1l-0.6,0.3c-0.5,0.3-0.8,1.1-0.3,2l4.2,8.5l-3-0.7
	l-6.5,5.1c-0.8,0.6-0.9,1.5-0.6,2l0.4,0.6C165.3,90.3,166.1,90.5,167,89.8"/>
<path class="st0" d="M156.1,86.2l9-6l3,1l-4.6-11.3c-0.4-1-1.2-1.3-1.7-1.1L161,69c-0.5,0.2-0.8,1.1-0.5,2l3.6,8.8l-2.9-0.9
	l-6.9,4.6c-0.8,0.5-1,1.4-0.7,1.9l0.4,0.6C154.3,86.6,155.2,86.8,156.1,86.2"/>
<path class="st0" d="M145.4,81.8l9.4-5.4l2.9,1.2L153.8,66c-0.3-1.1-1.1-1.4-1.6-1.2l-0.7,0.2c-0.6,0.2-0.9,1-0.6,2l3,9l-2.9-1.1
	l-7.1,4.1c-0.8,0.5-1.1,1.3-0.8,1.9l0.4,0.6C143.7,82.1,144.5,82.4,145.4,81.8 M150,229.6l-1.6,10.1l-2.6,1.5l10.7,3.7
	c1,0.4,1.7,0,1.8-0.6l0.2-0.6c0.2-0.5-0.2-1.3-1.1-1.6l-8.3-2.9l2.5-1.5l1.2-7.7c0.1-0.9-0.3-1.6-0.9-1.7l-0.7-0.1
	C150.8,228.1,150.1,228.5,150,229.6"/>
<path class="st0" d="M159.8,224.7l-2.3,10l-2.7,1.3l10.4,4.5c1,0.4,1.7,0.1,1.9-0.4l0.3-0.6c0.2-0.5-0.1-1.3-1-1.7l-8.1-3.5l2.6-1.3
	l1.7-7.6c0.2-0.9-0.2-1.6-0.8-1.8l-0.7-0.1C160.7,223.3,160,223.7,159.8,224.7"/>
<path class="st0" d="M169.9,220.5l-3,9.8l-2.7,1.1l10.1,5.2c0.9,0.5,1.7,0.2,1.9-0.3l0.3-0.6c0.3-0.5,0-1.3-0.8-1.7l-7.9-4l2.7-1.1
	l2.3-7.5c0.3-0.9-0.1-1.6-0.6-1.8l-0.7-0.2C171,219.2,170.2,219.6,169.9,220.5"/>
<path class="st0" d="M180.3,217.1l-3.7,9.6l-2.8,1l9.7,5.9c0.9,0.5,1.6,0.3,1.9-0.1l0.4-0.6c0.3-0.5,0.1-1.3-0.7-1.8l-7.5-4.6l2.8-1
	l2.8-7.3c0.3-0.9,0-1.6-0.5-1.9l-0.6-0.2C181.4,215.9,180.7,216.2,180.3,217.1"/>
<path class="st0" d="M190.9,214.4l-4.3,9.3l-2.9,0.8l9.3,6.5c0.8,0.6,1.6,0.4,1.9,0l0.4-0.6c0.3-0.5,0.2-1.3-0.6-1.8l-7.2-5.1
	l2.8-0.8l3.3-7.1c0.4-0.8,0.1-1.6-0.4-1.9l-0.6-0.3C192.1,213.3,191.4,213.5,190.9,214.4"/>
<path class="st0" d="M201.7,212.5l-5,9l-2.9,0.6l8.8,7.2c0.8,0.7,1.6,0.5,1.9,0.1l0.4-0.5c0.4-0.5,0.2-1.3-0.5-1.9l-6.8-5.6l2.9-0.6
	l3.8-6.9c0.4-0.8,0.3-1.6-0.2-1.9l-0.6-0.3C203,211.4,202.2,211.6,201.7,212.5"/>
<path class="st0" d="M212.6,211.3l-5.6,8.6l-3,0.3l8.3,7.8c0.7,0.7,1.5,0.6,1.9,0.3l0.5-0.5c0.4-0.4,0.3-1.3-0.3-1.9l-6.4-6.1
	l2.9-0.4l4.3-6.6c0.5-0.8,0.4-1.6-0.1-1.9l-0.6-0.4C213.9,210.3,213.2,210.4,212.6,211.3"/>
<path class="st0" d="M223.6,210.9l-6.2,8.2l-3,0.1l7.7,8.3c0.7,0.8,1.5,0.7,1.9,0.4l0.5-0.5c0.4-0.4,0.4-1.2-0.2-1.9l-6-6.5l2.9-0.2
	l4.7-6.3c0.6-0.7,0.5-1.6,0-1.9l-0.6-0.4C225,210,224.2,210,223.6,210.9"/>
<path class="st0" d="M234.5,211.2l-6.8,7.7l-3-0.1l7.1,8.9c0.6,0.8,1.4,0.8,1.8,0.5l0.6-0.4c0.5-0.3,0.5-1.2-0.1-1.9l-5.5-6.9
	l2.9,0.1l5.1-5.9c0.6-0.7,0.6-1.5,0.2-1.9l-0.5-0.4C236,210.4,235.2,210.4,234.5,211.2"/>
<path class="st0" d="M245.4,212.3l-7.3,7.2l-3-0.3l6.5,9.3c0.6,0.9,1.4,0.9,1.8,0.6l0.6-0.4c0.5-0.3,0.6-1.2,0-1.9l-5-7.3l2.9,0.3
	l5.5-5.6c0.6-0.6,0.7-1.5,0.3-1.9l-0.5-0.5C246.9,211.7,246.1,211.6,245.4,212.3"/>
<path class="st0" d="M256.2,214.2l-7.8,6.7l-2.9-0.5l5.8,9.8c0.5,0.9,1.3,1,1.8,0.8l0.6-0.3c0.5-0.3,0.7-1.1,0.2-1.9l-4.5-7.6
	l2.9,0.5l5.9-5.2c0.7-0.6,0.8-1.4,0.4-1.9l-0.4-0.5C257.7,213.6,256.9,213.5,256.2,214.2"/>
<path class="st0" d="M266.8,216.9l-8.2,6.2l-2.9-0.7l5.1,10.2c0.4,0.9,1.2,1.1,1.7,0.9l0.6-0.3c0.5-0.3,0.7-1.1,0.3-1.9l-3.9-7.9
	l2.8,0.6l6.3-4.7c0.7-0.5,0.9-1.4,0.6-1.8l-0.4-0.5C268.4,216.4,267.6,216.2,266.8,216.9"/>
<path class="st0" d="M277.2,220.2l-8.6,5.6l-2.8-0.9l4.4,10.5c0.4,1,1.1,1.2,1.6,1l0.6-0.3c0.5-0.2,0.8-1,0.5-1.9l-3.4-8.2l2.8,0.9
	l6.6-4.3c0.8-0.5,1-1.3,0.7-1.8l-0.4-0.6C278.9,219.9,278.1,219.7,277.2,220.2"/>
<path class="st0" d="M287.4,224.3l-9,4.9l-2.8-1.1l3.6,10.8c0.3,1,1,1.3,1.6,1.1l0.7-0.2c0.5-0.2,0.9-0.9,0.6-1.8l-2.8-8.4l2.7,1.1
	l6.9-3.8c0.8-0.4,1.1-1.2,0.8-1.7l-0.3-0.6C289,224.1,288.3,223.8,287.4,224.3"/>
<path class="st2" d="M140.5,86.4c-10.7,1.9-19.6,10.9-20.3,20.5c0,0.4,0,0.7,0,1.1c0,4.3,1.7,8.1,4.8,10.9c3.9,3.5,9.6,4.9,15.6,3.8
	c10.7-1.9,19.6-10.9,20.3-20.5c0.3-4.7-1.4-9-4.8-12C152.2,86.7,146.5,85.4,140.5,86.4 M36.7,113.6L32,132.1c0,0,3.6-1,6.2-1.7
	c-3.2,14.1-19.5,86.9-19.6,87.4c-0.8,2.8-4.5,4.8-7.6,5.8l-2.7,0.8L0,252.1l10.3-4.3c33.7-14,84.2-27.5,84.7-27.7l2.7-0.7l11.7-32.3
	l-12.6,3c-1.7,0.4-2.8,1.1-3.5,2c-1.6,1.9-6.7,7.2-11.5,8.8L59.6,207l-0.1,0c0.1-0.5,25.3-110.4,25.3-110.4L36.7,113.6z"/>
<path class="st2" d="M113.7,130.8l-4.6,18c0,0,2.8-0.7,5.3-1.4c-3,11.3-9.5,36.2-9.5,36.2c-0.7,3-1.1,5.9-1.1,8.7
	c0,6.1,1.7,11.3,5.1,15c3.2,3.5,9.3,7.4,20.5,5.9c8.7-1.2,16.7-5.4,23.9-12.5l4.9-4.8l-15-9l-2.9,2.8c-0.2,0.2-0.4,0.4-0.6,0.6
	c0.1-0.6,0.2-1.4,0.4-2.3c0,0,15.5-63.3,15.5-63.3l2.3-9.5L113.7,130.8z"/>
<path class="st2" d="M208.2,119.2c0.6-0.1,1.3-0.1,1.9,0l-13.5,54.7c-0.5,2-3.6,3.7-7.1,4c-0.2,0-0.3,0-0.5-0.1
	c0.7-2.8,14-55.9,14.1-56.2C203.5,120.8,206.1,119.4,208.2,119.2 M211.4,98.7c-25.5,3.1-44.8,18.4-50.2,39.7l-7.6,30.8l0-0.1
	c-2.7,9.8-1.6,17.6,3.1,23c5.5,6.3,15.1,8.6,28.6,6.9c25.6-3.4,44.6-17.3,49.6-36.4c0,0,8.6-34,8.6-34c2.4-9.9,1.2-17.6-3.6-23
	C234.4,99.3,224.9,97,211.4,98.7 M316.6,76.8c-5.3,0.9-11.5,3-17,5.8c0.5-1.9,1-4,1-4L256,95.2l-4.3,17.8l5.3-1.6l-17.8,73l37.7-9.2
	l15.2-63.1c0.9-3.7,2.7-6.1,5.9-7.5l-9,38c0-0.1-0.5,1.9-0.5,1.9c-2,7.7-4.8,18.3,1,24.8c3.2,3.6,8.2,5,14.7,4.1
	c11.6-1.6,21.9-7.7,30.5-18.1l3.8-4.6c0,0-12.8-8.1-14-8.9c2.9-11.9,9.9-41.3,9.9-41.3c0.7-2.9,1.1-5.6,1.1-8c0-4.7-1.3-8.5-4-11.3
	C328.2,77.4,322.7,75.8,316.6,76.8 M29,272.2l-2.3-6.7l7.9-3.6C77,243.7,135.4,223.4,195,206c61.1-17.8,115.4-30.1,148.9-33.7l6-0.6
	l-0.3,17l-4.2,0.8c-28.9,5.6-131.3,29.2-233.4,98l-2.8,1.9l-2.9-1.8c-22.1-13.9-53.1-15.8-69.5-15.7C34.2,271.9,29,272.2,29,272.2"
	/>
<path class="st2" d="M372.5,66.9c-21.6,4.5-33.7,20-33.2,42.5c0.3,13.4,8.6,24.5,16.7,35.3c6.9,9.2,13.5,17.9,13.7,26.6
	c0.4,16.2-6.8,18.5-9.1,19.1c-4.2,0.9-7.3-1.6-8.1-2.7c7.3-3.4,14.6-9.8,14.6-19.1c0-0.6,0-1.2-0.1-1.8c-0.6-6-3.5-9.2-5.8-10.9
	c-5.2-3.8-11.3-2.9-13-2.5c-12.7,2.6-20.8,15.2-18.4,28.6c3.9,21.7,24.1,28.3,41.3,25.4c12.4-2.2,22.8-8.4,29.2-17.6
	c6.4-9.1,8.5-20.5,6.2-33c-2.4-12.9-9.3-23.1-15.9-32.9c-6.9-10.2-13.5-19.9-13.9-31.4c-0.2-3.7,0.9-6.5,2-7.6
	c0.4-0.4,0.7-0.4,1-0.4c0.4,0,1.3,0.1,2.4,1.6c2.2,3.4,2.6,10.5,0.7,15.8l-0.6,1.8l3.2,9l30.5-14.2l-0.4-3.8
	c-1-9.1-5.5-16.9-12.7-22.1C394.4,66.5,383.7,64.5,372.5,66.9"/>
<path class="st1" d="M141.1,90.2c-8.9,1.6-16.6,9.2-17.2,17c0,0.3,0,0.6,0,0.8c0,3.2,1.2,6,3.5,8.1c3,2.7,7.6,3.8,12.4,2.9
	c8.9-1.6,16.6-9.2,17.2-17c0.2-3.5-1-6.7-3.5-8.9C150.5,90.3,146,89.3,141.1,90.2 M39.9,116.5l-2.6,10.2c0,0,4.3-1.2,6-1.6
	c-1,4.6-21,93.6-21,93.7c-1.5,5.2-7.6,7.6-10.1,8.4l-0.8,0.2L6,245.5l2.9-1.2c34-14.1,84.7-27.7,85.2-27.8l0.8-0.2l8.6-23.8
	l-4.5,1.1c-1.9,0.5-2.7,0.6-2.9,1.2c-1.2,1.4-6.9,7.8-13.1,9.8l-22.5,6.2c-2.2,0.5-3.9,0.5-4.6-0.2c-0.6-0.6-0.7-2.1-0.2-4
	c0,0,23.8-103.9,23.8-103.9L39.9,116.5z M116.9,133.7l-2.5,9.8c0,0,3.9-1,5.3-1.4c-1.1,4.4-11.1,42.3-11.1,42.3
	c-0.7,2.7-1,5.4-1,7.8c0,5.1,1.4,9.4,4.1,12.5c2.6,2.8,7.6,5.9,17.1,4.6c7.8-1.1,15.2-4.9,21.8-11.4l1.4-1.3l-8.3-5l-0.8,0.8
	c-1.8,1.7-3.5,2.7-5.3,2.9c-0.8,0.1-1.1-0.2-1.2-0.3c-0.7-0.8-1.2-3.3-0.1-7.9l16.1-66L116.9,133.7z M199.4,120.5
	c0.6-2.6,5.4-4.8,8.3-5.1c2.5-0.3,5.9,0.1,6.8,1c0.1,0.1,0.1,0.2,0.1,0.4l-14.3,57.9c-0.9,3.7-5.3,6.5-10.5,6.9
	c-1.6,0.1-3.3-0.5-4.2-1.6c-0.4-0.4-0.6-0.9-0.6-1.4c0-0.1,0-0.3,0-0.4C185,178.2,199.4,120.5,199.4,120.5 M211.9,102.4
	c-23.9,3-41.9,17.1-47,36.9l-7.6,30.7c-2.3,8.5-1.6,15.1,2.3,19.5c4.6,5.2,13.3,7.2,25.2,5.6c24.1-3.2,41.8-16,46.4-33.6l8.6-34
	c2.1-8.6,1.2-15.2-2.8-19.6C232.5,102.8,224,100.9,211.9,102.4 M317.3,80.5c-7.5,1.2-17.1,5.3-23.5,9.9l1.5-5.7L259.2,98l-2.3,9.5
	c0,0,3.9-1.2,5.3-1.6l-17.9,73.3l29.4-7.2l14.7-60.9c1.2-5.4,4.4-8.9,9.5-10.6c2-0.7,3.6-0.4,4.2,0.2c0.1,0.1,0.6,0.5,0.3,1.6
	l-9.8,41.1c0,0-0.5,2-0.5,2c-1.8,6.9-4.2,16.3,0.2,21.3c2.3,2.6,6.1,3.5,11.4,2.8c10.7-1.5,20.1-7.1,28.1-16.7l1.1-1.3l-8.5-5.4
	l-0.8,1.2c-1.9,2.7-4.1,3.9-5,3.8c-0.1-0.2-0.1-0.3-0.1-0.5c0-0.2,0-0.6,0.1-0.9l0-0.1l12-50.1c0.7-2.6,1-5,1-7.2
	c0-3.7-1-6.6-2.9-8.8C326.3,80.9,322,79.7,317.3,80.5 M344.3,176c-33.3,3.6-87.4,15.8-148.3,33.6c-59.4,17.3-117.7,37.6-160,55.7
	l-1.6,0.7l0.6,2.1l1.6,0c16.9-0.1,48.6,1.9,71.6,16.2l0.8,0.5l0.8-0.5c102.7-69.3,205.7-93,234.8-98.6l1.2-0.2l0.2-9.7L344.3,176z"
	/>
<path class="st1" d="M373.3,70.6c-19.9,4.2-30.7,17.9-30.2,38.7c0.3,12.2,8.2,22.8,16,33.1c7.3,9.7,14.2,18.9,14.5,28.8
	c0.3,12.8-3.7,20.3-12,22.5c-3.2,0.8-7.2,0-10.3-2.1c-2.2-1.5-3.7-3.5-4.3-5.8c7-2.2,16.3-8.2,16.3-17.3c0-0.5,0-0.9-0.1-1.4
	c-0.4-3.7-1.8-6.5-4.3-8.3c-3.1-2.3-7.2-2.4-10-1.8c-10.9,2.3-17.5,12.7-15.4,24.2c3.4,19.1,21.5,25,36.9,22.3
	c11.4-2,20.9-7.7,26.8-16c5.8-8.3,7.7-18.7,5.6-30.1c-2.2-12.1-8.9-21.9-15.4-31.5c-7.2-10.7-14.1-20.7-14.6-33.4
	c-0.2-4.3,1-8.3,3.2-10.4c1.1-1.1,2.4-1.6,3.9-1.5c2.1,0.2,3.9,1.3,5.3,3.3c2.9,4.4,3.4,12.7,1.1,19.1l-0.2,0.5l1.4,3.8l24.2-11.3
	l-0.1-1.1c-0.9-8-4.9-14.9-11.2-19.5C393,70.2,383.4,68.4,373.3,70.6"/>
<path class="st3" d="M155.6,101.9c-0.5,7.1-7.6,14.1-15.9,15.6c-8.3,1.5-14.7-3.1-14.2-10.3c0.5-7.2,7.6-14.1,15.9-15.6
	C149.7,90.1,156.1,94.8,155.6,101.9 M97.4,195.4l3.7-0.9l-7.4,20.5c0,0-50.9,13.6-85.4,27.9l4.3-14.3c4.7-1.5,9.7-4.6,11.1-9.4
	l21.6-96.2l-5.9,1.6l1.8-7l36.3-12.8L54.3,206.1c-1.4,5.3,1,7.4,6.6,6l22.5-6.2C90.8,203.6,97.4,195.4,97.4,195.4 M144,193.4
	c-1.9,1.8-3.9,3-6.1,3.3c-3.8,0.5-4.3-4.3-2.9-10.1l15.5-63.4l-32.3,11.5l-1.7,6.6l5.3-1.4l-11.7,44.8c-3.1,12.9,1.1,25.5,18.6,23.1
	c8-1.1,15-5.1,20.9-11L144,193.4z M238.4,127.2c4.7-19.4-6.9-25.7-26.3-23.3c-22.3,2.8-40.6,15.7-45.7,35.8l-7.6,30.7
	c-5.3,19.2,6.5,25.8,25.9,23.3c22.2-2.9,40.5-14.5,45.1-32.5L238.4,127.2z M189.8,183.1c-3.2,0.2-7-2-6.3-5.1l14.5-57.9
	c0.8-3.4,6.3-5.8,9.6-6.2c2.9-0.3,9.2,0.1,8.4,3.3l-14.3,58C200.5,179.8,195.3,182.8,189.8,183.1 M260.5,99.1l-1.5,6.2l5.3-1.6
	l-17.9,73.5l26.1-6.4l14.5-60c1.5-6.5,5.4-10,10.5-11.7c3.9-1.3,7.3,0.2,6.4,3.6l-9.8,41.1c-2.2,8.9-8.2,26.7,9.4,24.3
	c13.1-1.8,21.9-9.8,27.1-16.2l-5.9-3.7c-2.1,3-5,4.9-6.7,4.3c-1-0.3-1.2-1.9-0.8-3.2l12-50.1c3.8-15.2-4.6-18.4-11.8-17.2
	c-9,1.4-20.8,7.1-26.3,12.3L293,87L260.5,99.1z"/>
<path class="st3" d="M371.2,92.5c-0.3-7.3,3.1-13.9,8.7-13.5c8.9,0.6,11.1,14.8,7.7,24.4l0.6,1.8L410,95c-1.8-16.4-17.2-27-36.4-23
	c-20.7,4.3-29.4,18.9-29,37.2c0.5,23,29.9,40.6,30.4,61.9c0.4,15.9-6,22.1-13.1,24c-6.4,1.7-15.7-2.5-16.7-10.4
	c7.4-1.8,17.4-8.1,16.5-17.4c-0.9-9.2-9-9.5-12.5-8.8c-8.9,1.9-15.4,10.2-14.6,20.3c-74.3,10.3-215,52.5-297.9,87.9
	c23.3-0.1,51.8,3.6,72.4,16.5c82.5-55.6,170.5-85.2,227.2-97.2c5.1,13.7,19.8,18.5,33.8,16c21.1-3.6,35.6-20.3,31.2-44.4
	C396.6,132.4,372.3,117.2,371.2,92.5 M140.9,67.1c-5.3,4.1-8.7,1.7-11.2-2l4.3-3.3c1.5,1.9,2.9,3.5,5.2,1.7c1.4-1.1,1.4-2.6,0.4-4
	c-2.8-3.7-11.6,2.7-16.3-3.3c-2.5-3.2-2.9-6.9,2.3-10.9c4.2-3.2,7.7-2.9,10.7,1.5L132,50c-1.2-1.5-2.6-2.9-4.4-1.6
	c-1.4,1.1-1.6,2.5-0.5,3.9c3,3.9,11.3-3.1,16.3,3.3C147.5,60.9,144.1,64.5,140.9,67.1 M150.8,35.8L150.8,35.8l2.7,11.1l4.6-2.3
	L150.8,35.8z M150.8,59l-5.1-26.3l6.4-3.2l17.7,20l-5.1,2.5l-3.8-4.5l-6.6,3.3l1.2,5.8L150.8,59z M173.8,47.9l-5.7-25.2l8.5-1.9
	l7.8,16.2l0.1,0l0.3-18.1l8.2-1.8l5.7,25.2l-5.1,1.2L189.2,24l-0.1,0l-0.5,20.5l-5,1.1l-9-18.4l-0.1,0l4.4,19.4L173.8,47.9z
	 M211.9,42.7c-6.7,0-7.9-4-7.6-8.4l5.4,0c0,2.5,0.1,4.5,3,4.6c1.8,0,2.7-1.2,2.7-2.9c0-4.6-10.8-5-10.8-12.7c0-4,2-7.2,8.5-7.2
	c5.3,0,7.8,2.4,7.5,7.8l-5.3,0c0-1.9-0.3-3.9-2.5-3.9c-1.8,0-2.8,0.9-2.8,2.7c0,4.9,10.8,4.5,10.8,12.6
	C220.9,42,216,42.7,211.9,42.7 M248.9,21.1L245.2,39c-0.8,3.8-3.7,7.3-10.2,6c-5.8-1.2-8-4.8-7-9.5l3.7-17.9l5.3,1.1l-3.6,17.6
	c-0.6,3.1,0.4,4.6,2.4,5c2.3,0.5,3.7-0.8,4.3-3.6l3.6-17.6L248.9,21.1z M249.7,48.2l10.5-23.6l6.7,3l-1,19.1l0.1,0l7.2-16.3l4.6,2
	L267.3,56l-6.5-2.9L262,33l-0.1,0l-7.6,17.2L249.7,48.2z M292.8,51.8c1.4-1.9,2.4-3.8,0-5.5c-2.7-2-5.4,1.7-8.3,5.7
	c-4.8,6.5-5,8.1-2.5,10c0.7,0.5,1.6,0.9,2.5,1.2l3.4-4.6l-2.4-1.7l2.3-3.2l6.7,4.9L286.9,69c-1.4-0.6-4.7-2.3-6.4-3.6
	c-7.3-5.3-6-9-0.2-16.9c3.8-5.3,8-10.4,15.1-5.2c4.3,3.1,5.2,7.4,1.8,11.6L292.8,51.8z M171.5,276.4l2.6,0.8
	c0.8,0.3,2.2,0.1,2.8-1.7c0.4-1.3-0.2-2.6-1.5-3l-2.4-0.8L171.5,276.4z M169,284.4l2.1,0.7c0.8,0.3,2.7,0.8,3.5-1.8
	c0.5-1.6,0.2-2.8-1.7-3.4l-2.2-0.7L169,284.4z M164.2,286l5.8-18.3l6.8,2.2c2.9,0.9,5.1,2.5,3.8,6.4c-0.7,2.1-2.2,3.3-4.4,3l0,0.1
	c2.6,1.2,2.8,3.2,2,5.7c-1.5,4.6-5.6,3.6-7.2,3L164.2,286z M189.8,276.9L189.8,276.9l-3.4,7.8l3.8,0.7L189.8,276.9z M179.4,290.8
	l8.7-18l5.2,0.9l1.7,19.9l-4.2-0.8l-0.3-4.4l-5.4-1l-1.8,4L179.4,290.8z M203.2,294.4c-5-0.3-5.7-3.3-5.3-6.6l4,0.2
	c-0.1,1.8-0.1,3.4,2.1,3.5c1.4,0.1,2.1-0.8,2.2-2.1c0.2-3.5-7.9-4.1-7.6-9.9c0.2-3,1.7-5.3,6.6-5c3.9,0.2,5.8,2.1,5.3,6.1l-3.9-0.2
	c0.1-1.4-0.1-2.9-1.7-3c-1.3-0.1-2.1,0.6-2.2,1.9c-0.2,3.6,7.9,3.8,7.6,9.8C209.9,294.2,206.2,294.6,203.2,294.4 M213.9,294.5
	l-1-19.2l10.5-0.6l0.2,3L217,278l0.3,4.7l6-0.3l0.2,3l-6,0.3l0.3,5.6l6.7-0.4l0.2,3L213.9,294.5z M231.8,289.9l2.2-0.4
	c0.8-0.1,2.7-0.5,2.3-3.1c-0.3-1.7-1.1-2.6-3.1-2.3l-2.3,0.4L231.8,289.9z M230.4,281.6l2.7-0.4c0.9-0.1,2-0.9,1.7-2.8
	c-0.2-1.4-1.4-2.3-2.7-2l-2.4,0.4L230.4,281.6z M228.3,293.5l-3.2-19l7-1.2c3-0.5,5.7-0.1,6.4,4c0.4,2.2-0.4,3.9-2.5,4.7l0,0.1
	c2.9-0.1,3.9,1.6,4.4,4.2c0.8,4.8-3.3,5.7-5,6L228.3,293.5z M246.8,273.7L246.8,273.7l0.6,8.5l3.7-1.1L246.8,273.7z M243.9,290.8
	l-0.5-20l5.1-1.5l10.6,16.9l-4.1,1.2l-2.3-3.8l-5.3,1.6l0.2,4.4L243.9,290.8z M261.8,285l-7.6-17.7l3.7-1.6l6.3,14.8l5.5-2.4
	l1.3,2.9L261.8,285z M273.6,279.7l-9.2-16.9l3.5-1.9l7.7,14.1l5.3-2.9l1.5,2.8L273.6,279.7z M284.7,262c-3.1-4-6.1-7.9-0.8-11.9
	c3.3-2.5,5.9-1.7,8.3,1.7l-3.1,2.4c-1.6-2-2.5-2.5-3.5-1.8c-1.8,1.4-0.7,3.3,2.3,7.2c3,3.9,4.5,5.4,6.3,4c1.5-1.1-0.1-3-0.9-4.2
	l3.1-2.4c3.1,4.1,2.5,6.6-0.5,8.9C290.7,269.9,287.7,266,284.7,262 M303.1,259.6l-13.3-13.9l2.9-2.8l11.1,11.6l4.4-4.2l2.2,2.3
	L303.1,259.6z M306,228.2l10.4,8.8c2.2,1.9,3.5,5.1,0.3,8.8c-2.8,3.4-6,3.5-8.8,1.2l-10.4-8.8l2.6-3.1l10.2,8.6
	c1.8,1.5,3.2,1.4,4.1,0.2c1.1-1.3,0.8-2.7-0.9-4.1l-10.2-8.6L306,228.2z"/>
<path class="st3" d="M323,232.1l1.2-1.9c0.5-0.7,1.5-2.3-0.8-3.8c-1.4-0.9-2.7-1-3.8,0.8l-1.3,2L323,232.1z M315.9,227.5l1.5-2.3
	c0.5-0.7,0.6-2.1-0.9-3.1c-1.2-0.8-2.6-0.5-3.3,0.6l-1.3,2.1L315.9,227.5z M323.3,237.1l-16.2-10.4l3.9-6c1.7-2.6,3.8-4.2,7.2-2
	c1.9,1.2,2.6,3,1.8,5.1l0,0c1.9-2.2,3.8-1.8,6.1-0.4c4.1,2.6,2,6.3,1.1,7.8L323.3,237.1z"/>
</svg>
